<svg width="500" height="500" viewBox="0 0 500 500" fill="none" xmlns="http://www.w3.org/2000/svg">
<g clip-path="url(#clip0_2_4)">
<rect width="500" height="500" rx="100" fill="url(#paint0_linear_2_4)"/>
<path d="M249.836 440C219.169 440 194.669 431 176.336 413C158.003 395 148.836 371 148.836 341V181C148.836 151 158.003 127 176.336 109C194.669 91 219.169 82 249.836 82C280.503 82 305.003 91 323.336 109C342.003 127 351.336 151 351.336 181V341C351.336 371 342.003 395 323.336 413C305.003 431 280.503 440 249.836 440ZM249.836 379.5C259.169 379.5 266.669 376.333 272.336 370C278.003 363.333 280.836 354.667 280.836 344V178C280.836 167.333 278.003 158.833 272.336 152.5C266.669 145.833 259.169 142.5 249.836 142.5C240.503 142.5 233.003 145.833 227.336 152.5C222.003 158.833 219.336 167.333 219.336 178V344C219.336 354.667 222.003 363.333 227.336 370C233.003 376.333 240.503 379.5 249.836 379.5Z" fill="white"/>
<path d="M298 270.5C298 341.469 276.734 399 250.5 399C224.266 399 203 328.469 203 257.5C203 186.531 224.266 129 250.5 129C276.734 129 298 199.531 298 270.5Z" fill="white"/>
</g>
<defs>
<linearGradient id="paint0_linear_2_4" x1="250" y1="0" x2="250" y2="500" gradientUnits="userSpaceOnUse">
<stop stop-color="#00FFC2"/>
<stop offset="1" stop-color="#0075FF"/>
</linearGradient>
<clipPath id="clip0_2_4">
<rect width="500" height="500" rx="100" fill="white"/>
</clipPath>
</defs>
</svg>
